<?xml version="1.0" encoding="utf-8"?>
<!-- Generator: Adobe Illustrator 17.0.0, SVG Export Plug-In . SVG Version: 6.00 Build 0)  -->
<!DOCTYPE svg PUBLIC "-//W3C//DTD SVG 1.1//EN" "http://www.w3.org/Graphics/SVG/1.1/DTD/svg11.dtd">
<svg version="1.1" id="Capa_2" xmlns="http://www.w3.org/2000/svg" xmlns:xlink="http://www.w3.org/1999/xlink" x="0px" y="0px"
	 width="600px" height="100px" viewBox="0 0 600 100" enable-background="new 0 0 600 100" xml:space="preserve">
<g>
	<g>
		<path fill="#5C1217" d="M92.061,2.348H3.244C1.452,2.348,0,3.8,0,5.592v88.815c0,1.792,1.452,3.245,3.244,3.245h88.816
			c1.792,0,3.244-1.453,3.244-3.245V5.592C95.305,3.8,93.853,2.348,92.061,2.348z M77.866,19.605
			c-0.403-0.016-0.808-0.032-1.216-0.032c-16.798,0-30.417,13.619-30.417,30.418c0,16.798,13.619,30.414,30.417,30.414
			c0.408,0,0.813-0.014,1.216-0.029v11.793c-0.403,0.011-0.809,0.02-1.216,0.02c-21.438,0-39.141-15.995-41.824-36.706h-5.018
			v36.685h-12.37V7.813h12.37v36.723h5.018C37.51,23.828,55.212,7.833,76.65,7.833c0.407,0,0.813,0.007,1.216,0.019V19.605z"/>
		<path fill="#FFFFFF" d="M34.826,44.536h-5.018V7.813h-12.37v84.354h12.37V55.482h5.018C37.51,76.193,55.212,92.188,76.65,92.188
			c0.407,0,0.813-0.009,1.216-0.02V80.376c-0.403,0.016-0.808,0.029-1.216,0.029c-16.798,0-30.417-13.616-30.417-30.414
			c0-16.799,13.619-30.418,30.417-30.418c0.408,0,0.813,0.016,1.216,0.032V7.852c-0.403-0.012-0.809-0.019-1.216-0.019
			C55.212,7.833,37.51,23.828,34.826,44.536z"/>
	</g>
	<g>
		<polygon fill="#1A1A1A" points="115.932,28.235 115.932,71.938 124.534,71.938 124.534,56.281 128.664,51.979 141.912,71.938 
			152.236,71.938 134.858,45.957 151.547,28.235 141.568,28.235 124.534,45.957 124.534,28.235 		"/>
		<path fill="#1A1A1A" d="M184.41,55.937c8.045-4.226,7.119-10.499,6.71-18.755c-0.442-8.947-12.388-8.947-12.388-8.947h-20.646
			v43.531h8.946V57.829h8.259l9.119,14.108l9.979-0.172L184.41,55.937z M182.861,44.924c-0.172,5.851-6.624,6.195-6.624,6.195
			h-9.205V35.634c0,0,7.055,0,11.012,0c4.699,0,4.817,5.158,4.817,5.158V44.924z"/>
		<polygon fill="#1A1A1A" points="238.901,28.235 255.394,56.2 255.394,71.766 264.287,71.766 264.287,56.2 280.763,28.235 
			271.513,28.235 259.832,47.676 248.536,28.235 		"/>
		<g>
			<path fill="#1A1A1A" d="M223.634,27.768h-12.281c-7.434,0-13.46,6.295-13.46,14.059v16.345c0,7.766,6.025,14.059,13.46,14.059
				h12.281c7.434,0,13.459-6.294,13.459-14.059V41.828C237.093,34.063,231.067,27.768,223.634,27.768z M228.846,55.5
				c0,5.227-3.49,9.462-7.796,9.462h-7.113c-4.306,0-7.796-4.235-7.796-9.462v-11c0-5.226,3.49-9.462,7.796-9.462h7.113
				c4.306,0,7.796,4.236,7.796,9.462V55.5z"/>
		</g>
	</g>
	<g>
		<g>
			<path fill="#8C8E8E" d="M340.338,31.19l-14.477,37.621h3.484l3.799-10.05h17.644l3.8,10.05h3.529L343.641,31.19H340.338z
				 M334.367,55.536l7.6-20.208l7.601,20.208H334.367z"/>
			<path fill="#8C8E8E" d="M383.315,49.409c1.508-0.716,2.691-1.799,3.551-3.25c0.86-1.451,1.29-3.216,1.29-5.294
				c0-3.082-0.973-5.462-2.918-7.148c-1.945-1.682-4.683-2.525-8.211-2.525h-13.662v37.621h14.566c3.921,0,6.884-0.868,8.891-2.607
				c2.006-1.736,3.009-4.217,3.009-7.442c0-2.507-0.566-4.56-1.698-6.152C387.003,51.013,385.396,49.946,383.315,49.409z
				 M366.713,34.47h10.088c2.564,0,4.54,0.582,5.927,1.747c1.387,1.164,2.081,2.856,2.081,5.077c0,2.222-0.694,3.916-2.081,5.079
				c-1.387,1.166-3.363,1.746-5.927,1.746h-10.088V34.47z M384.31,63.812c-1.447,1.146-3.59,1.719-6.424,1.719h-11.174V51.397
				h11.174c5.73,0,8.595,2.347,8.595,7.039C386.481,60.873,385.759,62.666,384.31,63.812z"/>
			<path fill="#8C8E8E" d="M419.801,33.34c-2.518-1.647-5.346-2.473-8.481-2.473c-3.137,0-5.98,0.833-8.528,2.5
				c-2.549,1.665-4.539,3.95-5.971,6.853c-1.434,2.901-2.149,6.164-2.149,9.782c0,3.617,0.716,6.877,2.149,9.779
				c1.432,2.901,3.422,5.188,5.971,6.852c2.549,1.667,5.392,2.499,8.528,2.499c3.136,0,5.964-0.824,8.481-2.473
				c2.519-1.647,4.502-3.932,5.949-6.851c1.448-2.921,2.173-6.191,2.173-9.808c0-3.619-0.725-6.89-2.173-9.812
				C424.303,37.273,422.319,34.989,419.801,33.34z M422.854,57.98c-1.145,2.385-2.729,4.247-4.75,5.59
				c-2.02,1.343-4.282,2.017-6.785,2.017c-2.504,0-4.772-0.674-6.81-2.017c-2.034-1.343-3.635-3.205-4.794-5.59
				c-1.162-2.382-1.742-5.043-1.742-7.979c0-2.938,0.58-5.6,1.742-7.983c1.159-2.382,2.76-4.245,4.794-5.588
				c2.037-1.343,4.306-2.017,6.81-2.017c2.503,0,4.765,0.673,6.785,2.017c2.021,1.344,3.605,3.206,4.75,5.588
				c1.147,2.383,1.72,5.045,1.72,7.983C424.574,52.938,424.001,55.599,422.854,57.98z"/>
			<path fill="#8C8E8E" d="M457.733,62.683c-1.997,2.481-4.94,2.479-8.196,2.479c-2.563,0-4.952-0.254-7.003-1.617
				c-2.052-1.361-3.665-3.225-4.841-5.592c-1.176-2.363-1.282-5.017-1.282-7.952c0-2.938,0.106-5.598,1.282-7.981
				c1.176-2.382,2.797-4.245,4.863-5.588c2.065-1.343,4.384-1.874,6.945-2.017c3.966-0.221,6.098-0.011,10.284,1.82l-0.04-2.882
				c-1.534-0.691-1.363-0.716-3.567-1.331c-2.18-0.608-4.243-1.007-6.841-1.002c-3.229,0.007-6.035,0.673-8.568,2.32
				c-2.533,1.649-4.523,3.934-5.971,6.851c-1.449,2.922-1.699,6.191-1.699,9.81c0,3.617,0.25,6.889,1.699,9.81
				c1.447,2.919,3.438,5.203,5.971,6.851c2.533,1.648,5.449,1.603,8.616,1.603c2.232,0,4.195,0.205,6.313-0.365
				c1.989-0.538,3.088-0.676,5.248-1.941V52.049h-3.213V62.683z"/>
			<path fill="#8C8E8E" d="M479.811,31.19l-14.477,37.621h3.483l3.801-10.05h17.642l3.8,10.05h3.529L483.113,31.19H479.811z
				 M473.84,55.536l7.601-20.208l7.599,20.208H473.84z"/>
			<path fill="#8C8E8E" d="M524.598,33.583c-2.565-1.594-5.519-2.393-8.867-2.393h-12.893v37.621h12.893
				c3.349,0,6.303-0.796,8.867-2.394c2.563-1.593,4.554-3.814,5.972-6.662c1.417-2.85,2.126-6.1,2.126-9.753
				c0-3.656-0.709-6.908-2.126-9.756C529.151,37.398,527.16,35.176,524.598,33.583z M527.674,57.98
				c-1.147,2.311-2.76,4.123-4.841,5.43c-2.081,1.307-4.51,1.962-7.283,1.962h-9.365V34.629h9.365c2.773,0,5.202,0.655,7.283,1.963
				c2.081,1.308,3.693,3.117,4.841,5.427c1.146,2.312,1.719,4.973,1.719,7.983C529.393,53.01,528.819,55.67,527.674,57.98z"/>
			<path fill="#8C8E8E" d="M562.53,33.34c-2.518-1.647-5.347-2.473-8.482-2.473c-3.137,0-5.979,0.833-8.527,2.5
				c-2.55,1.665-4.539,3.95-5.972,6.853c-1.433,2.901-2.15,6.164-2.15,9.782c0,3.617,0.718,6.877,2.15,9.779
				c1.433,2.901,3.422,5.188,5.972,6.852c2.548,1.667,5.391,2.499,8.527,2.499c3.136,0,5.965-0.824,8.482-2.473
				c2.518-1.647,4.501-3.932,5.949-6.851c1.447-2.921,2.172-6.191,2.172-9.808c0-3.619-0.725-6.89-2.172-9.812
				C567.031,37.273,565.048,34.989,562.53,33.34z M565.584,57.98c-1.146,2.385-2.73,4.247-4.75,5.59
				c-2.021,1.343-4.283,2.017-6.786,2.017c-2.503,0-4.773-0.674-6.81-2.017c-2.034-1.343-3.634-3.205-4.794-5.59
				c-1.162-2.382-1.742-5.043-1.742-7.979c0-2.938,0.58-5.6,1.742-7.983c1.16-2.382,2.76-4.245,4.794-5.588
				c2.037-1.343,4.307-2.017,6.81-2.017c2.503,0,4.765,0.673,6.786,2.017c2.02,1.344,3.604,3.206,4.75,5.588
				c1.146,2.383,1.719,5.045,1.719,7.983C567.303,52.938,566.729,55.599,565.584,57.98z"/>
			<path fill="#8C8E8E" d="M598.424,53.414c-1.05-1.347-2.33-2.349-3.842-3.011c-1.512-0.663-3.493-1.333-5.944-2.014
				c-2.067-0.574-3.715-1.103-4.94-1.586c-1.226-0.484-2.243-1.182-3.055-2.096c-0.811-0.914-1.217-2.125-1.217-3.629
				c0-2.006,0.74-3.645,2.22-4.918c1.479-1.27,3.381-1.609,6.309-1.609c1.526,0,3.368-0.15,5.009,0.185
				c1.653,0.338,4.252,0.678,5.653,1.717v-2.821c-1.336-1.039-2.874-1.461-4.75-1.876c-1.864-0.412-3.717-0.576-5.625-0.576
				c-2.739,0-5.015,0.155-6.859,1.086c-1.845,0.932-3.214,2.177-4.104,3.737c-0.891,1.556-1.337,3.286-1.337,5.186
				c0,2.328,0.533,4.173,1.6,5.535c1.065,1.361,2.346,2.374,3.842,3.036c1.497,0.664,3.501,1.354,6.017,2.069
				c2.1,0.576,3.737,1.102,4.917,1.587c1.176,0.482,2.171,1.173,2.983,2.069c0.811,0.893,1.218,2.095,1.218,3.599
				c0,1.972-0.748,3.575-2.244,4.811c-1.495,1.236-3.696,1.704-6.688,1.704c-2.133,0-4.144,0.295-6.2-0.411
				c-2.019-0.694-3.89-1.313-5.476-2.431V66.4c2.153,0.71,2.153,0.71,4.496,1.39c2.348,0.682,5.068,1.021,7.55,1.021
				c2.736,0,4.631-0.135,6.509-1.049c1.878-0.913,3.271-2.15,4.176-3.71c0.909-1.555,1.361-3.284,1.361-5.182
				C600,56.574,599.475,54.757,598.424,53.414z"/>
		</g>
	</g>
	<g>
		<path fill="#5C1217" d="M302.228,21.157c0,19.229,0,38.457,0,57.687c0,2.052,3.183,2.052,3.183,0c0-19.23,0-38.458,0-57.687
			C305.411,19.105,302.228,19.105,302.228,21.157L302.228,21.157z"/>
	</g>
</g>
</svg>
